<?xml version="1.0" standalone="no"?>
<!DOCTYPE svg PUBLIC "-//W3C//DTD SVG 20010904//EN"
 "http://www.w3.org/TR/2001/REC-SVG-20010904/DTD/svg10.dtd">
<svg version="1.0" xmlns="http://www.w3.org/2000/svg"
 width="3072.000000pt" height="3072.000000pt" viewBox="0 0 3072.000000 3072.000000"
 preserveAspectRatio="xMidYMid meet">
<metadata>
Created by potrace 1.10, written by Peter Selinger 2001-2011
</metadata>
<g transform="translate(0.000000,3072.000000) scale(0.100000,-0.100000)"
fill="#000000" stroke="none">
<path d="M6595 28455 c-5 -1 -50 -8 -100 -14 -231 -30 -474 -110 -552 -182
-41 -40 -48 -73 -28 -142 22 -76 93 -228 137 -294 191 -287 507 -533 858 -668
25 -9 60 -23 78 -31 18 -8 40 -14 50 -14 9 0 34 -6 57 -14 48 -16 146 -39 270
-61 155 -28 595 -9 653 28 9 6 12 68 12 255 0 252 -7 308 -51 427 -77 208
-248 390 -486 516 -184 97 -342 146 -599 184 -89 13 -270 19 -299 10z"/>
<path d="M3607 28075 c-48 -14 -73 -39 -91 -93 -21 -60 -20 -67 9 -129 41 -89
56 -94 284 -91 l193 3 33 39 c35 42 47 89 38 156 -7 48 -62 107 -107 115 -60
10 -324 10 -359 0z"/>
<path d="M4470 28072 c-35 -15 -58 -39 -79 -79 -26 -51 -27 -88 -3 -140 38
-86 75 -99 282 -102 157 -2 200 5 246 39 42 31 54 62 54 135 0 67 -2 73 -32
104 -18 18 -43 37 -56 42 -27 10 -389 11 -412 1z"/>
<path d="M8515 28073 c-50 -13 -95 -92 -95 -165 1 -51 40 -115 85 -138 40 -20
343 -27 398 -9 43 14 80 58 97 117 17 56 -1 119 -47 164 l-34 33 -192 2 c-106
1 -201 -1 -212 -4z"/>
<path d="M9390 28073 c-46 -18 -100 -100 -100 -150 1 -37 31 -102 61 -130 42
-38 75 -44 240 -42 141 1 163 3 201 22 101 51 118 197 33 277 -26 25 -29 25
-223 27 -108 1 -204 0 -212 -4z"/>
<path d="M5499 27873 c-23 -29 -56 -107 -93 -218 -14 -44 -16 -133 -16 -806
l0 -756 32 -44 c17 -24 41 -51 52 -59 68 -48 76 -63 91 -150 22 -137 57 -275
81 -323 8 -16 14 -33 14 -38 0 -24 105 -227 164 -317 136 -207 303 -346 510
-424 135 -51 195 -61 366 -62 167 -1 259 12 348 50 18 8 40 14 48 14 23 0 142
62 212 109 100 69 244 227 334 369 54 85 133 276 161 387 38 153 47 196 47
237 0 66 9 86 49 109 53 32 90 69 112 111 17 34 19 61 19 298 0 210 -3 262
-14 266 -7 3 -56 -2 -109 -10 -202 -33 -600 -17 -763 29 -28 8 -60 15 -71 15
-11 0 -39 6 -64 14 -24 7 -71 21 -104 31 -64 18 -119 38 -175 63 -19 8 -48 21
-65 28 -37 15 -233 111 -260 127 -11 7 -39 24 -63 40 -24 15 -45 27 -48 27 -5
0 -146 101 -154 110 -3 3 -33 27 -67 53 -125 95 -254 239 -371 414 -63 93
-150 251 -161 292 -9 31 -24 36 -42 14z"/>
<path d="M9695 27300 c-16 -4 -57 -8 -91 -9 -57 -1 -88 -8 -224 -48 -128 -37
-289 -113 -399 -187 -91 -61 -273 -238 -327 -319 -66 -100 -72 -109 -122 -212
-70 -142 -86 -189 -126 -357 -23 -94 -23 -466 0 -552 48 -187 102 -326 164
-421 11 -16 23 -37 27 -45 11 -24 153 -211 192 -253 103 -110 236 -200 436
-293 51 -23 215 -71 315 -90 129 -26 481 -26 580 0 189 49 246 70 390 141 104
52 106 53 190 116 284 214 492 580 541 954 23 176 -2 426 -61 590 -11 33 -25
74 -30 90 -34 107 -154 302 -266 430 -65 74 -228 212 -296 251 -128 72 -328
156 -416 175 -24 5 -47 11 -51 13 -4 3 -61 12 -126 20 -124 17 -249 19 -300 6z
m-137 -827 l2 -343 -324 0 c-286 0 -325 2 -330 16 -3 9 -6 147 -6 307 0 273 1
294 20 322 11 16 27 33 37 37 10 4 149 6 308 5 l290 -2 3 -342z m317 335 c8
-8 9 -328 1 -336 -12 -12 -129 -3 -138 11 -14 21 -10 311 5 326 12 12 119 12
132 -1z m775 3 c14 -4 35 -22 47 -40 23 -33 23 -39 23 -326 0 -236 -3 -295
-14 -304 -9 -8 -105 -11 -332 -9 l-319 3 -3 337 c-2 314 -1 337 15 341 29 7
556 6 583 -2z m-775 -596 l0 -80 -64 -3 c-76 -4 -81 1 -81 80 0 87 2 89 79 86
l66 -3 0 -80z m166 -252 c7 -52 2 -257 -6 -263 -6 -5 -42 -10 -80 -12 l-70 -3
-3 -77 c-3 -89 -7 -92 -98 -86 l-49 3 -3 129 c-1 75 -7 135 -14 143 -8 10 -77
13 -324 13 -227 0 -315 3 -320 12 -8 12 -6 127 2 140 6 10 964 11 965 1z m351
-288 c-1 -159 -2 -298 -2 -307 0 -16 -10 -18 -78 -18 -47 0 -83 -5 -90 -12 -7
-7 -12 -43 -12 -90 l0 -78 163 0 c113 0 167 4 175 12 7 7 12 40 12 79 0 83 8
91 92 87 l63 -3 3 -145 c4 -222 7 -220 -276 -220 -110 0 -207 3 -216 6 -13 5
-16 23 -16 94 0 71 -3 89 -16 94 -9 3 -75 6 -148 6 -91 0 -137 4 -147 13 -11
9 -14 30 -11 90 l4 77 68 0 c82 0 90 9 90 93 0 32 5 59 13 64 6 6 41 13 75 17
35 3 68 8 73 12 5 3 9 96 9 208 0 111 3 206 7 210 4 4 43 5 88 4 l80 -3 -3
-290z m317 131 c8 -9 11 -57 9 -147 l-3 -134 -64 -3 c-35 -2 -68 1 -73 6 -5 5
-10 69 -11 141 -2 107 1 134 13 141 23 15 116 12 129 -4z m-1154 -481 l0 -340
-293 -3 -294 -2 -34 34 -34 34 0 299 c0 221 3 302 12 311 9 9 91 12 328 10
l315 -3 0 -340z m313 -170 c8 -3 12 -28 12 -79 0 -86 -8 -96 -79 -96 -69 0
-71 3 -71 91 0 62 3 80 16 87 15 8 91 6 122 -3z"/>
<path d="M9100 26628 c-20 -7 -20 -14 -18 -160 l3 -153 150 -3 c132 -2 151 -1
162 15 15 19 18 269 5 291 -9 14 -267 23 -302 10z"/>
<path d="M10224 26617 c-2 -7 -3 -75 -2 -152 l3 -139 28 -7 c16 -4 87 -9 159
-10 102 -2 132 1 139 12 10 16 12 268 3 293 -5 14 -29 16 -165 16 -122 0 -161
-3 -165 -13z"/>
<path d="M9084 25477 c-2 -7 -3 -78 -2 -157 l3 -145 146 -3 c116 -2 149 0 158
12 8 9 11 59 9 157 l-3 144 -153 3 c-119 2 -154 0 -158 -11z"/>
<path d="M3395 27290 c-44 -4 -111 -18 -150 -30 -38 -11 -83 -25 -100 -29 -16
-5 -43 -14 -60 -21 -59 -25 -100 -43 -115 -51 -95 -50 -125 -69 -190 -113
-109 -74 -285 -253 -354 -359 -120 -185 -191 -365 -230 -577 -18 -95 -21 -347
-6 -420 6 -25 14 -69 20 -98 17 -95 43 -167 112 -307 71 -143 98 -185 200
-312 186 -229 450 -382 793 -459 108 -24 467 -25 565 -1 36 8 76 18 90 20 24
5 53 14 135 45 93 34 232 102 247 119 6 7 15 13 20 13 17 0 172 124 236 188
58 60 169 198 186 232 4 8 12 24 19 35 44 71 127 248 127 271 0 7 6 28 14 46
42 99 51 176 50 423 0 173 -4 248 -14 270 -7 17 -16 46 -20 65 -20 88 -90 253
-149 350 -11 19 -24 42 -28 50 -17 38 -149 202 -205 256 -75 71 -230 189 -278
211 -8 4 -35 18 -60 33 -84 48 -205 94 -345 130 -91 24 -370 35 -510 20z m340
-437 c46 -15 104 -40 160 -71 32 -17 129 -124 150 -164 42 -83 55 -149 55
-290 l0 -137 -31 -36 c-27 -30 -37 -35 -75 -35 -36 0 -51 6 -82 34 l-37 34 -5
145 -5 145 -41 49 c-47 56 -119 98 -181 108 -110 16 -226 -28 -289 -112 -31
-41 -31 -42 -36 -182 -4 -139 -5 -141 -35 -178 -26 -33 -36 -38 -79 -41 -46
-3 -53 0 -87 34 l-37 37 0 121 c0 187 37 293 140 397 56 56 167 129 198 129 9
1 28 7 42 15 37 21 211 20 275 -2z m0 -809 c94 -31 170 -75 222 -130 126 -129
143 -189 143 -500 0 -258 -6 -292 -68 -375 -75 -101 -136 -114 -471 -105 -141
4 -267 10 -281 13 -47 11 -112 56 -137 95 -47 75 -53 116 -53 353 1 239 9 303
53 395 26 54 121 159 168 185 46 25 104 52 149 68 62 21 210 22 275 1z"/>
<path d="M3516 25737 c-62 -35 -81 -68 -81 -141 0 -57 3 -66 33 -101 38 -42
38 -44 2 -160 -12 -38 -24 -87 -27 -107 l-5 -38 126 -2 c69 -1 136 -2 149 -2
40 -2 35 57 -19 207 -19 52 -18 65 11 91 39 36 58 100 43 148 -14 48 -73 103
-125 117 -53 15 -62 14 -107 -12z"/>
<path d="M5270 24545 c-14 -7 -52 -26 -85 -40 -69 -31 -148 -70 -220 -109 -48
-26 -255 -163 -265 -175 -3 -4 -27 -24 -55 -46 -72 -57 -230 -217 -311 -315
-75 -93 -174 -227 -174 -237 0 -4 -6 -14 -14 -22 -33 -39 -196 -363 -196 -391
0 -5 -6 -24 -14 -42 -18 -43 -36 -96 -46 -133 -4 -16 -18 -66 -30 -110 -58
-208 -60 -230 -67 -600 -3 -193 -3 -372 1 -397 7 -48 31 -82 78 -111 25 -16
218 -17 2829 -17 l2802 0 34 21 c18 12 45 37 58 57 l25 37 0 315 c0 320 -10
447 -46 576 -8 28 -14 60 -14 72 0 12 -6 39 -14 59 -8 21 -23 67 -34 103 -12
36 -31 90 -42 120 -12 30 -25 67 -30 82 -14 46 -137 290 -175 346 -19 30 -35
56 -35 58 0 3 -45 65 -100 138 -98 130 -305 346 -398 412 -22 16 -57 42 -79
57 -127 95 -520 307 -568 307 -10 0 -24 -8 -31 -17 -14 -20 -390 -771 -529
-1058 -48 -99 -136 -279 -195 -400 -59 -121 -152 -310 -205 -420 -288 -592
-281 -581 -366 -607 -32 -9 -51 -9 -87 1 -79 21 -105 55 -227 301 -37 74 -76
153 -88 175 -11 22 -25 49 -30 60 -6 11 -14 27 -19 35 -4 8 -15 31 -23 50 -9
19 -35 73 -59 120 -58 113 -96 189 -239 480 -282 576 -588 1188 -616 1233 -33
51 -55 58 -101 32z"/>
<path d="M7093 24290 c-39 -4 -76 -10 -81 -14 -5 -3 -73 -13 -151 -21 -127
-14 -157 -14 -294 -1 -83 9 -170 20 -192 26 -22 5 -75 10 -118 10 -93 0 -129
-16 -158 -72 -30 -58 -25 -88 28 -159 25 -35 49 -66 53 -69 10 -8 170 -208
299 -375 73 -94 74 -97 63 -129 -7 -18 -12 -43 -12 -57 -1 -13 -7 -35 -15 -49
-8 -14 -14 -36 -15 -49 0 -13 -7 -44 -15 -70 -46 -146 -57 -237 -30 -268 140
-170 233 -278 247 -287 19 -12 27 -6 113 99 28 33 60 71 72 85 91 105 95 112
91 159 -3 25 -10 69 -17 96 -7 28 -20 77 -28 110 -8 33 -21 83 -28 110 -8 28
-17 77 -20 110 -6 59 -6 61 35 115 22 30 95 120 160 200 221 267 260 321 259
360 0 19 -8 49 -17 67 -37 69 -95 87 -229 73z"/>
<path d="M3034 23984 c-64 -32 -79 -58 -79 -137 0 -77 12 -102 64 -143 24 -18
44 -19 306 -19 277 0 280 0 313 23 66 48 90 138 53 210 -40 79 -29 77 -345 80
-240 2 -286 0 -312 -14z"/>
<path d="M9754 23984 c-63 -31 -79 -59 -79 -133 0 -71 13 -98 72 -144 27 -21
35 -22 303 -22 272 0 275 0 308 23 91 65 94 196 7 264 -29 23 -34 23 -305 26
-234 2 -280 0 -306 -14z"/>
<path d="M2856 21233 c-41 -7 -94 -50 -112 -91 -12 -29 -14 -137 -14 -662 0
-687 -2 -666 60 -725 l31 -30 197 -6 c331 -12 532 -10 582 5 108 32 156 197
82 281 -55 62 -41 60 -331 65 l-266 5 -3 113 -3 112 170 0 c179 0 223 8 281
52 30 23 59 83 60 121 0 36 -25 95 -53 125 -48 52 -95 62 -284 62 l-174 0 3
113 3 112 260 5 c187 4 266 9 283 18 12 7 36 31 52 54 25 34 30 51 30 98 0 47
-5 64 -29 96 -62 85 -29 79 -435 80 -198 1 -374 -1 -390 -3z"/>
<path d="M4100 21232 c-38 -11 -77 -41 -100 -77 -20 -32 -20 -48 -20 -683 0
-592 2 -653 17 -680 52 -90 201 -110 281 -38 53 47 56 67 60 404 2 171 7 312
11 312 4 0 41 -41 82 -91 41 -51 91 -113 112 -138 20 -25 64 -80 97 -121 33
-41 86 -107 117 -147 32 -39 80 -100 107 -135 28 -35 59 -72 70 -83 70 -70
185 -57 245 26 l31 42 0 648 0 647 -33 44 c-46 61 -88 80 -160 75 -65 -6 -111
-31 -145 -82 -21 -30 -22 -40 -22 -328 0 -210 -3 -298 -11 -303 -12 -7 -68 47
-134 131 -22 28 -64 79 -95 115 -69 81 -123 147 -175 214 -86 110 -166 203
-193 223 -31 23 -102 35 -142 25z"/>
<path d="M5641 21233 c-38 -8 -87 -50 -110 -94 -21 -39 -21 -52 -21 -662 l0
-622 23 -45 c41 -81 119 -114 216 -89 46 12 61 21 88 57 l33 44 0 648 c0 629
-1 650 -20 682 -30 51 -69 75 -131 81 -30 3 -65 3 -78 0z"/>
<path d="M7824 21233 c-42 -5 -111 -66 -122 -107 -6 -19 -8 -303 -6 -667 4
-703 1 -671 71 -719 40 -27 116 -37 165 -21 19 6 50 27 68 46 34 35 34 37 41
153 4 64 8 213 8 330 1 172 4 214 15 218 15 6 51 -31 172 -171 97 -112 140
-155 157 -155 8 0 59 48 114 106 203 220 203 220 213 204 5 -8 9 -111 10 -230
1 -303 11 -412 43 -454 42 -54 147 -73 216 -38 19 9 48 34 65 55 l31 39 3 621
c2 342 1 641 -3 664 -4 30 -17 52 -45 81 -43 43 -81 54 -149 45 -45 -6 -105
-56 -171 -143 -19 -25 -48 -61 -65 -81 -55 -64 -146 -176 -212 -261 -21 -27
-44 -48 -53 -48 -8 0 -45 39 -82 88 -36 48 -75 97 -86 110 -11 13 -35 42 -54
65 -80 100 -178 214 -204 238 -30 27 -81 39 -140 32z"/>
<path d="M9938 21233 c-45 -7 -100 -73 -136 -165 -19 -46 -43 -105 -54 -133
-11 -27 -30 -72 -43 -100 -12 -27 -44 -102 -70 -165 -26 -63 -53 -130 -61
-147 -36 -84 -44 -103 -74 -178 -18 -44 -39 -95 -46 -112 -33 -78 -42 -101
-59 -143 -17 -44 -27 -67 -59 -143 -26 -61 -21 -117 15 -166 46 -64 114 -85
198 -61 66 19 101 68 176 250 42 103 35 100 269 100 110 0 206 -4 212 -8 11
-7 44 -74 85 -172 56 -135 107 -180 203 -180 79 0 130 32 156 98 17 44 15 76
-10 142 -12 30 -25 67 -30 81 -4 14 -12 34 -17 45 -21 40 -80 182 -120 289
-15 38 -22 56 -60 142 -9 21 -22 53 -30 71 -21 52 -39 94 -56 132 -8 19 -30
71 -47 115 -18 44 -38 94 -45 110 -7 17 -28 66 -46 110 -18 44 -38 87 -46 96
-7 8 -13 21 -13 27 0 6 -15 22 -33 36 -33 25 -105 39 -159 29z m93 -717 c16
-37 29 -72 29 -77 0 -5 -32 -9 -71 -9 -81 0 -79 -4 -44 90 19 51 34 72 47 68
6 -2 23 -34 39 -72z"/>
<path d="M6709 21210 c-59 -16 -163 -61 -214 -93 -171 -106 -274 -245 -341
-462 -27 -86 -25 -305 4 -390 70 -212 250 -411 442 -489 25 -10 61 -25 80 -34
28 -13 87 -16 315 -19 321 -5 330 -3 372 77 22 42 23 50 23 347 0 319 -3 347
-48 396 -43 47 -138 57 -383 38 -115 -9 -142 -21 -173 -74 -31 -54 -19 -114
33 -170 38 -41 78 -60 146 -66 l60 -6 3 -83 c3 -82 3 -82 -25 -93 -110 -43
-264 -8 -367 82 -42 38 -106 120 -106 138 0 4 -7 22 -16 39 -19 40 -15 219 7
273 24 60 94 144 151 180 73 48 141 69 220 69 57 0 80 -6 166 -45 55 -25 109
-45 121 -45 37 0 117 40 138 68 56 76 49 159 -20 239 -104 117 -390 177 -588
123z"/>
</g>
</svg>
